<?xml version="1.0" encoding="utf-8"?>
<!-- Generator: Adobe Illustrator 20.1.0, SVG Export Plug-In . SVG Version: 6.00 Build 0)  -->
<svg version="1.1" id="Layer_6" xmlns="http://www.w3.org/2000/svg" xmlns:xlink="http://www.w3.org/1999/xlink" x="0px" y="0px"
	 viewBox="0 0 162 86.2" style="enable-background:new 0 0 162 86.2;" xml:space="preserve">
<style type="text/css">
	.st0{fill:none;stroke:#BCC3C5;stroke-width:2;stroke-linecap:round;stroke-miterlimit:10;}
</style>
<g>
	<path class="st0" d="M101.4,54.7H90.3h-0.1l-0.7-2.9c-0.3-1.3-1.5-1.9-2.9-1.9h-3.6h-2.4h-3.6c-1.3,0-2.6,0.6-2.9,1.9l-0.7,2.9
		h-0.1H62.4c-2.2,0-3.1,1.2-3.1,3.4v21.1c0,2.2,0.9,3.5,3.1,3.5h39c2.2,0,3.1-1.3,3.1-3.5V58.1C104.5,56,103.6,54.7,101.4,54.7z
		 M81.9,74.1c-3.1,0-5.6-2.5-5.6-5.6c0-3.1,2.5-5.6,5.6-5.6c3.1,0,5.6,2.5,5.6,5.6C87.5,71.6,85,74.1,81.9,74.1z"/>
	<path class="st0" d="M18.6,6.7l-14.9,2C2.4,8.8,1.6,7.8,1.6,6.5V6.1c0-1.3,0.8-2.2,2.1-2.1l15.1,2.1h0.5L33.9,4
		c1.3-0.1,1.6,0.7,1.6,2.1v0.4c0,1.3-0.3,2.3-1.6,2.2l-14.6-2"/>
	<path class="st0" d="M143.6,6.7l-14.9,2c-1.3,0.1-2.1-0.9-2.1-2.2V6.1c0-1.3,0.8-2.2,2.1-2.1l15.1,2.1h0.5L158.9,4
		c1.3-0.1,1.6,0.7,1.6,2.1v0.4c0,1.3-0.3,2.3-1.6,2.2l-14.6-2"/>
	<path class="st0" d="M144.6,12.2c-1.2,0-2.4,1-2.4,2.2v5.1l-39.4-5.1C102.2,11,94.3,3.8,81.6,3.8c-12.7,0-20.5,7.2-21,10.6
		l-39.4,5.1v-5.1c0-1.2-1.2-2.2-2.4-2.2c-1.2,0-2.4,1-2.4,2.2v8.2c0,0.9,0.5,1.6,1.5,1.6l42.9-1l0.4,13.2L43.8,52.5l6.8,19
		c0.4,1,1.6,2.4,2.7,2.4h5.4v-4h-3.6c-0.5,0-0.9-0.7-1-1.2l-3.8-13.5l19.7-13.3h24.1l20.5,13.6l-4.6,12.9c-0.1,0.5-0.6,1.5-1,1.5
		h-3.9v4h5.7c1.1,0,2.1-1.4,2.5-2.4l7.4-19L102,36.5l0.5-13.2l43,1c1.1,0,1.5-0.8,1.5-1.6v-8.2C147,13.2,145.8,12.2,144.6,12.2z"/>
	<line class="st0" x1="66.6" y1="15.1" x2="95.6" y2="15.1"/>
	<circle class="st0" cx="81.9" cy="68.5" r="8.8"/>
	<line class="st0" x1="78.6" y1="54.1" x2="84.6" y2="54.1"/>
	<line class="st0" x1="98.9" y1="60.5" x2="98.9" y2="81.8"/>
	<line class="st0" x1="64.9" y1="60.5" x2="64.9" y2="81.8"/>
</g>
</svg>
