<?xml version="1.0" encoding="utf-8"?>
<!-- Generator: Adobe Illustrator 20.1.0, SVG Export Plug-In . SVG Version: 6.00 Build 0)  -->
<svg version="1.1" id="Main_illustration" xmlns="http://www.w3.org/2000/svg" xmlns:xlink="http://www.w3.org/1999/xlink" x="0px"
	 y="0px" viewBox="0 0 162 86.2" style="enable-background:new 0 0 162 86.2;" xml:space="preserve">
<style type="text/css">
	.st0{fill:none;stroke:#BCC3C5;stroke-width:2;stroke-linecap:round;stroke-miterlimit:10;}
	.st1{fill:#BCC3C5;}
</style>
<g>
	<path class="st0" d="M101.8,54.3V3.2c0-1.9-1.1-2.2-2.4-2.2H38.8c-1.3,0-2.4,0.3-2.4,2.2v79.6c0,1.6,1.1,2.3,2.4,2.3h60.6
		c1.3,0,2.4-0.4,2.4-2.3v-11"/>
	<polyline class="st0" points="97.7,67.1 97.7,77.6 40.6,77.6 40.6,5.6 97.7,5.6 97.7,49.4 	"/>
	<line class="st0" x1="72.6" y1="77.6" x2="72.6" y2="6.6"/>
	<circle class="st1" cx="69" cy="81.4" r="1.6"/>
	<path class="st0" d="M102.3,49.1c1,0,2.1-0.6,2.1,0.4v5.2c0,1-0.3,1.8-1.3,1.8l-8.5-10.6c-1.9-2.3-5.2-2.6-7.5-0.7l0,0
		c-2.3,1.9-2.6,5.3-0.7,7.6L104,73.9c0,0,2.2,3.3,3.3,4.5c1.9,2.2,5,3.8,8.6,3.8h4.9c2.8,0,5-2.8,5-5.4S123.5,49,123.5,49
		c-1-11-10.3-13.8-20.6-15.8"/>
	<line class="st0" x1="98.6" y1="56.4" x2="96.3" y2="58.4"/>
	<line class="st0" x1="40.6" y1="42.8" x2="61.1" y2="34.4"/>
	<line class="st0" x1="40.6" y1="34.7" x2="58.3" y2="27.5"/>
	<line class="st0" x1="40.8" y1="26.6" x2="55.5" y2="20.6"/>
	<line class="st0" x1="40.7" y1="66.7" x2="53.7" y2="61.3"/>
	<polyline class="st0" points="40.8,72.8 41.4,74.3 41.4,74.4 56.9,68.1 40.8,28.9 	"/>
	<line class="st0" x1="40.7" y1="50.7" x2="63.9" y2="41.2"/>
	<line class="st0" x1="40.7" y1="50.6" x2="48.9" y2="70.8"/>
	<polyline class="st0" points="58.8,50.8 42.1,10.1 40.7,10.7 	"/>
	<polyline class="st0" points="40.7,58.7 66.2,48.3 66.7,48.1 52.7,13.8 40.8,18.6 	"/>
	<line class="st0" x1="77.8" y1="15.4" x2="92.1" y2="15.4"/>
	<line class="st0" x1="77.8" y1="21.4" x2="92.1" y2="21.4"/>
	<line class="st0" x1="77.8" y1="27.4" x2="92.1" y2="27.4"/>
	<line class="st0" x1="77.8" y1="33.4" x2="92.1" y2="33.4"/>
	<line class="st0" x1="77.8" y1="39.4" x2="85.1" y2="39.4"/>
</g>
</svg>
