<svg width="66" height="66" viewBox="0 0 66 66" fill="none" xmlns="http://www.w3.org/2000/svg">
<g clip-path="url(#clip0_4205_180)">
<path d="M4.55793 43.3809H11.4871C12.0166 43.3809 12.454 43.8221 12.454 44.3562V65.6518H3.59106V44.3562C3.59106 43.8221 4.02846 43.3809 4.55793 43.3809Z" stroke="#BCC3C5" stroke-width="2" stroke-miterlimit="10" stroke-linecap="round"/>
<path d="M17.0582 32.4893H23.9874C24.5168 32.4893 24.9542 32.9305 24.9542 33.4646V65.6518H16.0913V33.4646C16.0913 32.9305 16.5287 32.4893 17.0582 32.4893Z" stroke="#BCC3C5" stroke-width="2" stroke-miterlimit="10" stroke-linecap="round"/>
<path d="M29.5352 20.8545H36.4644C36.9939 20.8545 37.4313 21.2957 37.4313 21.8299V65.6518H28.5684V21.8299C28.5684 21.2957 29.0058 20.8545 29.5352 20.8545Z" stroke="#BCC3C5" stroke-width="2" stroke-miterlimit="10" stroke-linecap="round"/>
<path d="M42.0125 29.6094H48.9417C49.4712 29.6094 49.9086 30.0506 49.9086 30.5847V65.6516H41.0457V30.5847C41.0457 30.0506 41.483 29.6094 42.0125 29.6094Z" stroke="#BCC3C5" stroke-width="2" stroke-miterlimit="10" stroke-linecap="round"/>
<path d="M54.5125 13.6785H61.4417C61.9712 13.6785 62.4086 14.1197 62.4086 14.6538V65.6517H53.5457V14.6538C53.5457 14.1197 53.983 13.6785 54.5125 13.6785Z" stroke="#BCC3C5" stroke-width="2" stroke-miterlimit="10" stroke-linecap="round"/>
<path d="M0.345215 65.6516H65.6546" stroke="#BCC3C5" stroke-width="2" stroke-miterlimit="10" stroke-linecap="round"/>
<path d="M8.03417 36.7622C9.90312 36.7622 11.4182 35.2337 11.4182 33.3484C11.4182 31.463 9.90312 29.9346 8.03417 29.9346C6.16523 29.9346 4.65015 31.463 4.65015 33.3484C4.65015 35.2337 6.16523 36.7622 8.03417 36.7622Z" stroke="#BCC3C5" stroke-width="2" stroke-miterlimit="10" stroke-linecap="round"/>
<path d="M20.5112 25.9169C22.3802 25.9169 23.8952 24.3885 23.8952 22.5031C23.8952 20.6178 22.3802 19.0894 20.5112 19.0894C18.6423 19.0894 17.1272 20.6178 17.1272 22.5031C17.1272 24.3885 18.6423 25.9169 20.5112 25.9169Z" stroke="#BCC3C5" stroke-width="2" stroke-miterlimit="10" stroke-linecap="round"/>
<path d="M33.0115 14.2822C34.8804 14.2822 36.3955 12.7538 36.3955 10.8684C36.3955 8.983 34.8804 7.45459 33.0115 7.45459C31.1425 7.45459 29.6274 8.983 29.6274 10.8684C29.6274 12.7538 31.1425 14.2822 33.0115 14.2822Z" stroke="#BCC3C5" stroke-width="2" stroke-miterlimit="10" stroke-linecap="round"/>
<path d="M45.4885 23.0837C47.3575 23.0837 48.8725 21.5553 48.8725 19.6699C48.8725 17.7845 47.3575 16.2561 45.4885 16.2561C43.6196 16.2561 42.1045 17.7845 42.1045 19.6699C42.1045 21.5553 43.6196 23.0837 45.4885 23.0837Z" stroke="#BCC3C5" stroke-width="2" stroke-miterlimit="10" stroke-linecap="round"/>
<path d="M57.9658 7.17598C59.8348 7.17598 61.3498 5.64757 61.3498 3.76218C61.3498 1.8768 59.8348 0.348389 57.9658 0.348389C56.0969 0.348389 54.5818 1.8768 54.5818 3.76218C54.5818 5.64757 56.0969 7.17598 57.9658 7.17598Z" stroke="#BCC3C5" stroke-width="2" stroke-miterlimit="10" stroke-linecap="round"/>
<path d="M10.3132 30.8635L17.7719 24.988" stroke="#BCC3C5" stroke-width="2" stroke-miterlimit="10" stroke-linecap="round"/>
<path d="M22.9514 20.1345L30.8014 13.4463" stroke="#BCC3C5" stroke-width="2" stroke-miterlimit="10" stroke-linecap="round"/>
<path d="M35.8889 12.6567L42.8642 17.5568" stroke="#BCC3C5" stroke-width="2" stroke-miterlimit="10" stroke-linecap="round"/>
<path d="M47.2612 16.7904L55.5947 6.17749" stroke="#BCC3C5" stroke-width="2" stroke-miterlimit="10" stroke-linecap="round"/>
</g>
<defs>
<clipPath id="clip0_4205_180">
<rect width="66" height="66" fill="white"/>
</clipPath>
</defs>
</svg>
